<svg id="Capa_1" enable-background="new 0 0 512 512" height="512" viewBox="0 0 512 512" width="512" xmlns="http://www.w3.org/2000/svg"><g><path d="m485.937 121.351h-302.593c-4.142 0-7.5 3.357-7.5 7.5s3.358 7.5 7.5 7.5h302.593c6.1 0 11.063 4.963 11.063 11.062v217.174c0 6.1-4.963 11.062-11.063 11.062h-459.874c-6.1 0-11.063-4.963-11.063-11.062v-217.174c0-6.1 4.963-11.062 11.063-11.062h120.98c4.142 0 7.5-3.357 7.5-7.5s-3.358-7.5-7.5-7.5h-120.98c-14.371 0-26.063 11.691-26.063 26.062v217.174c0 14.371 11.692 26.062 26.063 26.062h459.874c14.371 0 26.063-11.691 26.063-26.062v-217.174c0-14.371-11.692-26.062-26.063-26.062z"/><path d="m35.834 285.928c-4.142 0-7.5 3.357-7.5 7.5v14.695c0 8.511 5.527 15.993 13.441 18.197 9.59 2.669 17.139 10.691 19.7 20.936 2.071 8.285 9.339 14.071 17.673 14.071h353.703c8.334 0 15.602-5.786 17.673-14.071 2.562-10.244 10.11-18.267 19.701-20.936 7.914-2.204 13.44-9.687 13.44-18.197v-104.246c0-8.511-5.527-15.993-13.441-18.197-9.59-2.669-17.139-10.691-19.7-20.936-2.071-8.285-9.339-14.071-17.673-14.071h-353.703c-8.334 0-15.602 5.786-17.673 14.071-2.562 10.244-10.11 18.267-19.701 20.936-7.914 2.204-13.44 9.687-13.44 18.197v53.887c0 4.143 3.358 7.5 7.5 7.5s7.5-3.357 7.5-7.5v-53.887c0-1.773 1.036-3.349 2.463-3.746 14.779-4.114 26.362-16.279 30.229-31.748.399-1.596 1.683-2.71 3.122-2.71h122.734c-30.655 18.436-51.209 52.025-51.209 90.327s20.554 71.891 51.209 90.327h-122.734c-1.439 0-2.723-1.114-3.122-2.71-3.867-15.469-15.451-27.634-30.229-31.748-1.428-.397-2.464-1.973-2.464-3.746v-14.695c.001-4.143-3.357-7.5-7.499-7.5zm129.839-29.928c0-49.807 40.521-90.327 90.327-90.327s90.327 40.521 90.327 90.327c0 13.125-2.75 25.777-8.174 37.605-1.727 3.765-.074 8.217 3.691 9.943 3.764 1.728 8.218.073 9.943-3.691 6.33-13.804 9.539-28.56 9.539-43.857 0-38.302-20.554-71.891-51.209-90.327h122.734c1.439 0 2.723 1.114 3.122 2.71 3.867 15.469 15.451 27.634 30.229 31.748 1.428.397 2.464 1.973 2.464 3.746v104.246c0 1.773-1.036 3.349-2.463 3.746-14.779 4.114-26.362 16.279-30.229 31.748-.399 1.596-1.683 2.71-3.122 2.71h-122.591c7.385-4.455 14.27-9.856 20.506-16.141 2.917-2.939 2.899-7.688-.041-10.606-2.94-2.917-7.689-2.899-10.606.042-17.088 17.221-39.86 26.705-64.12 26.705-49.807 0-90.327-40.52-90.327-90.327z"/><path d="m410.281 291.374c19.505 0 35.375-15.869 35.375-35.374s-15.869-35.374-35.375-35.374-35.374 15.869-35.374 35.374 15.869 35.374 35.374 35.374zm0-55.748c11.234 0 20.375 9.14 20.375 20.374s-9.14 20.374-20.375 20.374-20.375-9.14-20.375-20.374 9.141-20.374 20.375-20.374z"/><path d="m101.719 291.374c19.505 0 35.375-15.869 35.375-35.374s-15.869-35.374-35.375-35.374-35.375 15.869-35.375 35.374 15.869 35.374 35.375 35.374zm0-55.748c11.234 0 20.375 9.14 20.375 20.374s-9.14 20.374-20.375 20.374-20.375-9.14-20.375-20.374 9.14-20.374 20.375-20.374z"/><path d="m269.456 248.318c-10.134-3.582-21.372-7.932-27.885-13.04-2.991-2.346-4.264-6.913-3.32-11.919.89-4.722 4.117-10.452 10.507-12.377 11.819-3.562 19.092 1.249 24.647 6.423l.619.571c3.061 2.789 7.805 2.569 10.595-.493s2.568-7.806-.494-10.595l-.497-.46c-6.474-6.03-13.429-9.718-20.8-11.066v-7.437c0-4.143-3.358-7.5-7.5-7.5s-7.5 3.357-7.5 7.5v7.825c-1.126.247-2.256.525-3.397.869-10.729 3.232-18.745 12.414-20.922 23.962-1.984 10.53 1.389 20.685 8.804 26.5 6.626 5.196 15.938 9.652 32.143 15.38 13.859 4.898 13.005 16.763 12.414 20.282-1.477 8.783-8.863 18.275-21.592 18.359-10.614.074-14.804-.403-23.833-6.311-3.467-2.268-8.115-1.296-10.382 2.17-2.268 3.467-1.296 8.115 2.17 10.383 9.588 6.272 16.137 8.142 24.595 8.618v8.112c0 4.143 3.358 7.5 7.5 7.5s7.5-3.357 7.5-7.5v-8.708c16.827-3.301 26.655-17.177 28.834-30.137 2.802-16.663-5.914-31.152-22.206-36.911z"/></g></svg>